<svg width="512" height="512" viewBox="0 0 512 512" fill="none" xmlns="http://www.w3.org/2000/svg">
  <defs>
    <linearGradient id="bg" x1="44" y1="36" x2="474" y2="496" gradientUnits="userSpaceOnUse">
      <stop stop-color="#0F1B3D"/>
      <stop offset="0.55" stop-color="#0F4C81"/>
      <stop offset="1" stop-color="#14A4A0"/>
    </linearGradient>
    <linearGradient id="shield" x1="256" y1="98" x2="256" y2="394" gradientUnits="userSpaceOnUse">
      <stop stop-color="#F8FAFF" stop-opacity="0.98"/>
      <stop offset="1" stop-color="#D5E9FF" stop-opacity="0.94"/>
    </linearGradient>
    <linearGradient id="accent" x1="175" y1="309" x2="340" y2="189" gradientUnits="userSpaceOnUse">
      <stop stop-color="#0E4E8A"/>
      <stop offset="1" stop-color="#1AA7A1"/>
    </linearGradient>
  </defs>

  <rect x="20" y="20" width="472" height="472" rx="116" fill="url(#bg)"/>

  <g opacity="0.2" stroke="#9FD4FF" stroke-width="1.2">
    <path d="M80 138H432"/>
    <path d="M80 188H432"/>
    <path d="M80 238H432"/>
    <path d="M80 288H432"/>
    <path d="M80 338H432"/>
    <path d="M80 388H432"/>
  </g>

  <path d="M256 94L366 138V232C366 296 319 350 256 388C193 350 146 296 146 232V138L256 94Z" fill="url(#shield)"/>
  <path d="M256 111L351 149V228C351 285 311 334 256 366C201 334 161 285 161 228V149L256 111Z" fill="#E9F4FF"/>

  <g stroke="url(#accent)" stroke-width="14" stroke-linecap="round" stroke-linejoin="round">
    <path d="M189 304L256 182L323 304"/>
    <path d="M218 254H294"/>
    <path d="M190 304H323"/>
  </g>

  <g fill="#0C2F58">
    <circle cx="189" cy="304" r="13"/>
    <circle cx="256" cy="182" r="13"/>
    <circle cx="323" cy="304" r="13"/>
  </g>
</svg>
